<?xml version="1.0" encoding="UTF-8"?><svg xmlns="http://www.w3.org/2000/svg" xmlns:xlink="http://www.w3.org/1999/xlink" contentScriptType="text/ecmascript" width="337.5pt" zoomAndPan="magnify" contentStyleType="text/css" viewBox="0 0 337.5 337.499995" height="337.499995pt" preserveAspectRatio="xMidYMid meet" version="1.2"><defs><g/></defs><g xml:id="surface1" id="surface1"><g clip-rule="nonzero"><path style=" stroke:none;fill-rule:nonzero;fill:rgb(0%,0%,0%);fill-opacity:1;" d="M 168.558594 311.480469 C 89.84375 311.480469 25.730469 247.367188 25.730469 168.558594 C 25.730469 89.746094 89.84375 25.730469 168.558594 25.730469 C 247.269531 25.730469 311.382812 89.84375 311.382812 168.558594 C 311.480469 247.367188 247.367188 311.480469 168.558594 311.480469 Z M 168.558594 28.148438 C 91.101562 28.148438 28.148438 91.101562 28.148438 168.558594 C 28.148438 246.015625 91.195312 309.0625 168.558594 309.0625 C 245.917969 309.0625 309.0625 246.015625 309.0625 168.558594 C 309.0625 91.101562 246.015625 28.148438 168.558594 28.148438 Z M 168.558594 28.148438 "/></g><path style="fill:none;stroke-width:1;stroke-linecap:round;stroke-linejoin:miter;stroke:rgb(0%,0%,0%);stroke-opacity:1;stroke-miterlimit:4;" d="M 0.500417 0.000241188 L 2.985596 0.000241188 " transform="matrix(0.000000000000000224,3.659192,-3.749999,0.00000000000000023,168.746998,20.680598)"/><path style="fill:none;stroke-width:1;stroke-linecap:round;stroke-linejoin:miter;stroke:rgb(0%,0%,0%);stroke-opacity:1;stroke-miterlimit:4;" d="M 0.500125 0.000241188 L 2.986372 0.000241188 " transform="matrix(0.000000000000000224,3.659192,-3.749999,0.00000000000000023,168.746998,305.236354)"/><path style="fill:none;stroke-width:1;stroke-linecap:round;stroke-linejoin:miter;stroke:rgb(0%,0%,0%);stroke-opacity:1;stroke-miterlimit:4;" d="M 0.500487 -0.000270155 L 2.985539 0.0000262964 " transform="matrix(3.657797,-0.101049,0.103556,3.748569,19.196691,169.11018)"/><path style="fill:none;stroke-width:1;stroke-linecap:round;stroke-linejoin:miter;stroke:rgb(0%,0%,0%);stroke-opacity:1;stroke-miterlimit:4;" d="M 0.49961 0.00000488486 L 2.985857 0.00000488486 " transform="matrix(3.659192,0,0,3.749999,303.749957,168.749982)"/><path style=" stroke:none;fill-rule:nonzero;fill:rgb(13.328552%,13.328552%,13.328552%);fill-opacity:1;" d="M 168.75 163.0625 C 168.363281 163.0625 167.984375 163.101562 167.605469 163.175781 C 167.226562 163.25 166.859375 163.363281 166.503906 163.507812 C 166.148438 163.65625 165.8125 163.835938 165.492188 164.050781 C 165.171875 164.265625 164.875 164.507812 164.601562 164.78125 C 164.328125 165.054688 164.085938 165.351562 163.871094 165.671875 C 163.65625 165.992188 163.476562 166.328125 163.328125 166.683594 C 163.183594 167.039062 163.070312 167.40625 162.996094 167.785156 C 162.921875 168.164062 162.882812 168.542969 162.882812 168.929688 C 162.882812 169.316406 162.921875 169.695312 162.996094 170.074219 C 163.070312 170.453125 163.183594 170.820312 163.328125 171.175781 C 163.476562 171.53125 163.65625 171.867188 163.871094 172.1875 C 164.085938 172.507812 164.328125 172.804688 164.601562 173.078125 C 164.875 173.351562 165.171875 173.59375 165.492188 173.808594 C 165.8125 174.023438 166.148438 174.203125 166.503906 174.351562 C 166.859375 174.496094 167.226562 174.609375 167.605469 174.683594 C 167.984375 174.757812 168.363281 174.796875 168.75 174.796875 C 169.136719 174.796875 169.515625 174.757812 169.894531 174.683594 C 170.273438 174.609375 170.640625 174.496094 170.996094 174.351562 C 171.351562 174.203125 171.6875 174.023438 172.007812 173.808594 C 172.328125 173.59375 172.625 173.351562 172.898438 173.078125 C 173.171875 172.804688 173.414062 172.507812 173.628906 172.1875 C 173.84375 171.867188 174.023438 171.53125 174.171875 171.175781 C 174.316406 170.820312 174.429688 170.453125 174.503906 170.074219 C 174.578125 169.695312 174.617188 169.316406 174.617188 168.929688 C 174.617188 168.542969 174.578125 168.164062 174.503906 167.785156 C 174.429688 167.40625 174.316406 167.039062 174.171875 166.683594 C 174.023438 166.328125 173.84375 165.992188 173.628906 165.671875 C 173.414062 165.351562 173.171875 165.054688 172.898438 164.78125 C 172.625 164.507812 172.328125 164.265625 172.007812 164.050781 C 171.6875 163.835938 171.351562 163.65625 170.996094 163.507812 C 170.640625 163.363281 170.273438 163.25 169.894531 163.175781 C 169.515625 163.101562 169.136719 163.0625 168.75 163.0625 Z M 168.75 163.0625 "/><path style="fill:none;stroke-width:1;stroke-linecap:round;stroke-linejoin:miter;stroke:rgb(1.179504%,59.609985%,61.959839%);stroke-opacity:1;stroke-miterlimit:4;" d="M 0.500004 0.00000488486 L 35.25001 0.00000488486 " transform="matrix(3.749999,0,0,3.749999,168.749984,168.749982)"/><path style="fill:none;stroke-width:1;stroke-linecap:round;stroke-linejoin:round;stroke:rgb(1.179504%,59.609985%,61.959839%);stroke-opacity:1;stroke-miterlimit:4;" d="M -2.499989 -1.499995 L -0.499989 0.00000488486 L -2.499989 1.500005 " transform="matrix(3.749999,0,0,3.749999,303.749957,168.749982)"/><g style="fill:rgb(0%,0%,0%);fill-opacity:1;"><g transform="translate(0.0319477, 162.254105)"><path style="stroke:none;" d="M 3.828125 -0.15625 C 3.097656 -0.15625 2.472656 -0.332031 1.953125 -0.6875 C 1.441406 -1.050781 1.054688 -1.523438 0.796875 -2.109375 C 0.535156 -2.691406 0.40625 -3.3125 0.40625 -3.96875 C 0.40625 -4.675781 0.53125 -5.359375 0.78125 -6.015625 C 1.039062 -6.679688 1.425781 -7.226562 1.9375 -7.65625 C 2.457031 -8.082031 3.097656 -8.296875 3.859375 -8.296875 C 4.628906 -8.296875 5.273438 -8.085938 5.796875 -7.671875 C 6.316406 -7.253906 6.703125 -6.710938 6.953125 -6.046875 C 7.210938 -5.390625 7.34375 -4.695312 7.34375 -3.96875 C 7.34375 -3.289062 7.203125 -2.660156 6.921875 -2.078125 C 6.648438 -1.492188 6.25 -1.023438 5.71875 -0.671875 C 5.1875 -0.328125 4.554688 -0.15625 3.828125 -0.15625 Z M 3.8125 -0.96875 C 4.34375 -0.96875 4.800781 -1.097656 5.1875 -1.359375 C 5.582031 -1.628906 5.878906 -1.988281 6.078125 -2.4375 C 6.273438 -2.894531 6.375 -3.40625 6.375 -3.96875 C 6.375 -4.59375 6.273438 -5.171875 6.078125 -5.703125 C 5.878906 -6.234375 5.585938 -6.660156 5.203125 -6.984375 C 4.828125 -7.316406 4.382812 -7.484375 3.875 -7.484375 C 3.363281 -7.484375 2.914062 -7.316406 2.53125 -6.984375 C 2.144531 -6.660156 1.851562 -6.226562 1.65625 -5.6875 C 1.46875 -5.144531 1.375 -4.570312 1.375 -3.96875 C 1.375 -3.414062 1.46875 -2.910156 1.65625 -2.453125 C 1.851562 -1.992188 2.132812 -1.628906 2.5 -1.359375 C 2.863281 -1.097656 3.300781 -0.96875 3.8125 -0.96875 Z M 3.8125 -0.96875 "/></g></g><g style="fill:rgb(0%,0%,0%);fill-opacity:1;"><g transform="translate(7.783053, 162.254105)"><path style="stroke:none;" d="M 2.390625 -7.0625 C 1.828125 -7.0625 1.367188 -7.222656 1.015625 -7.546875 C 0.671875 -7.878906 0.5 -8.300781 0.5 -8.8125 C 0.5 -9.164062 0.582031 -9.488281 0.75 -9.78125 C 0.925781 -10.070312 1.160156 -10.300781 1.453125 -10.46875 C 1.742188 -10.632812 2.070312 -10.71875 2.4375 -10.71875 C 2.800781 -10.71875 3.128906 -10.632812 3.421875 -10.46875 C 3.710938 -10.300781 3.9375 -10.078125 4.09375 -9.796875 C 4.25 -9.523438 4.328125 -9.238281 4.328125 -8.9375 C 4.328125 -8.570312 4.234375 -8.242188 4.046875 -7.953125 C 3.867188 -7.671875 3.628906 -7.453125 3.328125 -7.296875 C 3.035156 -7.140625 2.722656 -7.0625 2.390625 -7.0625 Z M 2.390625 -7.71875 C 2.742188 -7.71875 3.035156 -7.820312 3.265625 -8.03125 C 3.503906 -8.25 3.625 -8.539062 3.625 -8.90625 C 3.625 -9.195312 3.519531 -9.457031 3.3125 -9.6875 C 3.113281 -9.925781 2.804688 -10.046875 2.390625 -10.046875 C 2.015625 -10.046875 1.722656 -9.921875 1.515625 -9.671875 C 1.304688 -9.421875 1.203125 -9.132812 1.203125 -8.8125 C 1.203125 -8.46875 1.316406 -8.195312 1.546875 -8 C 1.773438 -7.8125 2.054688 -7.71875 2.390625 -7.71875 Z M 2.390625 -7.71875 "/></g></g><g style="fill:rgb(0%,0%,0%);fill-opacity:1;"><g transform="translate(311.769579, 164.381307)"><path style="stroke:none;" d="M 3.90625 -0.4375 C 3.90625 -0.3125 3.863281 -0.210938 3.78125 -0.140625 C 3.695312 -0.0664062 3.578125 -0.03125 3.421875 -0.03125 C 3.128906 -0.03125 2.984375 -0.164062 2.984375 -0.4375 L 2.984375 -7.125 C 2.523438 -6.539062 2.125 -6.050781 1.78125 -5.65625 C 1.757812 -5.625 1.71875 -5.597656 1.65625 -5.578125 C 1.601562 -5.566406 1.550781 -5.5625 1.5 -5.5625 C 1.375 -5.5625 1.269531 -5.59375 1.1875 -5.65625 C 1.101562 -5.726562 1.0625 -5.820312 1.0625 -5.9375 C 1.0625 -5.988281 1.078125 -6.046875 1.109375 -6.109375 C 1.148438 -6.179688 1.195312 -6.25 1.25 -6.3125 C 1.550781 -6.65625 1.8125 -6.972656 2.03125 -7.265625 C 2.257812 -7.566406 2.414062 -7.769531 2.5 -7.875 L 2.734375 -8.1875 C 2.796875 -8.28125 2.875 -8.347656 2.96875 -8.390625 C 3.070312 -8.429688 3.175781 -8.453125 3.28125 -8.453125 C 3.457031 -8.453125 3.601562 -8.40625 3.71875 -8.3125 C 3.832031 -8.21875 3.890625 -8.085938 3.890625 -7.921875 Z M 3.90625 -0.4375 "/></g></g><g style="fill:rgb(0%,0%,0%);fill-opacity:1;"><g transform="translate(317.385046, 164.381307)"><path style="stroke:none;" d="M 5.015625 -5.328125 C 5.679688 -5.128906 6.203125 -4.804688 6.578125 -4.359375 C 6.953125 -3.921875 7.140625 -3.382812 7.140625 -2.75 C 7.140625 -2.1875 7 -1.695312 6.71875 -1.28125 C 6.4375 -0.875 6.039062 -0.5625 5.53125 -0.34375 C 5.03125 -0.132812 4.460938 -0.03125 3.828125 -0.03125 C 3.179688 -0.03125 2.597656 -0.140625 2.078125 -0.359375 C 1.554688 -0.585938 1.144531 -0.914062 0.84375 -1.34375 C 0.550781 -1.769531 0.40625 -2.269531 0.40625 -2.84375 C 0.40625 -3.226562 0.507812 -3.59375 0.71875 -3.9375 C 0.9375 -4.28125 1.21875 -4.566406 1.5625 -4.796875 C 1.90625 -5.035156 2.28125 -5.207031 2.6875 -5.3125 C 2.414062 -5.4375 2.1875 -5.625 2 -5.875 C 1.8125 -6.125 1.71875 -6.414062 1.71875 -6.75 C 1.71875 -7.144531 1.816406 -7.484375 2.015625 -7.765625 C 2.210938 -8.054688 2.472656 -8.273438 2.796875 -8.421875 C 3.117188 -8.578125 3.460938 -8.65625 3.828125 -8.65625 C 4.421875 -8.65625 4.90625 -8.484375 5.28125 -8.140625 C 5.664062 -7.804688 5.859375 -7.359375 5.859375 -6.796875 C 5.859375 -6.460938 5.78125 -6.171875 5.625 -5.921875 C 5.476562 -5.671875 5.273438 -5.472656 5.015625 -5.328125 Z M 3.875 -7.859375 C 3.519531 -7.859375 3.226562 -7.753906 3 -7.546875 C 2.769531 -7.347656 2.65625 -7.066406 2.65625 -6.703125 C 2.65625 -6.359375 2.769531 -6.082031 3 -5.875 C 3.238281 -5.664062 3.53125 -5.5625 3.875 -5.5625 C 4.195312 -5.5625 4.457031 -5.675781 4.65625 -5.90625 C 4.863281 -6.132812 4.96875 -6.421875 4.96875 -6.765625 C 4.96875 -7.109375 4.867188 -7.375 4.671875 -7.5625 C 4.472656 -7.757812 4.207031 -7.859375 3.875 -7.859375 Z M 3.84375 -0.796875 C 4.351562 -0.796875 4.785156 -0.882812 5.140625 -1.0625 C 5.503906 -1.25 5.773438 -1.488281 5.953125 -1.78125 C 6.128906 -2.070312 6.21875 -2.382812 6.21875 -2.71875 C 6.21875 -3.101562 6.113281 -3.453125 5.90625 -3.765625 C 5.707031 -4.078125 5.425781 -4.320312 5.0625 -4.5 C 4.695312 -4.675781 4.289062 -4.765625 3.84375 -4.765625 C 3.375 -4.765625 2.945312 -4.671875 2.5625 -4.484375 C 2.1875 -4.304688 1.890625 -4.070312 1.671875 -3.78125 C 1.453125 -3.488281 1.34375 -3.179688 1.34375 -2.859375 C 1.34375 -2.253906 1.5625 -1.757812 2 -1.375 C 2.4375 -0.988281 3.050781 -0.796875 3.84375 -0.796875 Z M 3.84375 -0.796875 "/></g></g><g style="fill:rgb(0%,0%,0%);fill-opacity:1;"><g transform="translate(324.985398, 164.381307)"><path style="stroke:none;" d="M 3.828125 -0.15625 C 3.097656 -0.15625 2.472656 -0.332031 1.953125 -0.6875 C 1.441406 -1.050781 1.054688 -1.523438 0.796875 -2.109375 C 0.535156 -2.691406 0.40625 -3.3125 0.40625 -3.96875 C 0.40625 -4.675781 0.53125 -5.359375 0.78125 -6.015625 C 1.039062 -6.679688 1.425781 -7.226562 1.9375 -7.65625 C 2.457031 -8.082031 3.097656 -8.296875 3.859375 -8.296875 C 4.628906 -8.296875 5.273438 -8.085938 5.796875 -7.671875 C 6.316406 -7.253906 6.703125 -6.710938 6.953125 -6.046875 C 7.210938 -5.390625 7.34375 -4.695312 7.34375 -3.96875 C 7.34375 -3.289062 7.203125 -2.660156 6.921875 -2.078125 C 6.648438 -1.492188 6.25 -1.023438 5.71875 -0.671875 C 5.1875 -0.328125 4.554688 -0.15625 3.828125 -0.15625 Z M 3.8125 -0.96875 C 4.34375 -0.96875 4.800781 -1.097656 5.1875 -1.359375 C 5.582031 -1.628906 5.878906 -1.988281 6.078125 -2.4375 C 6.273438 -2.894531 6.375 -3.40625 6.375 -3.96875 C 6.375 -4.59375 6.273438 -5.171875 6.078125 -5.703125 C 5.878906 -6.234375 5.585938 -6.660156 5.203125 -6.984375 C 4.828125 -7.316406 4.382812 -7.484375 3.875 -7.484375 C 3.363281 -7.484375 2.914062 -7.316406 2.53125 -6.984375 C 2.144531 -6.660156 1.851562 -6.226562 1.65625 -5.6875 C 1.46875 -5.144531 1.375 -4.570312 1.375 -3.96875 C 1.375 -3.414062 1.46875 -2.910156 1.65625 -2.453125 C 1.851562 -1.992188 2.132812 -1.628906 2.5 -1.359375 C 2.863281 -1.097656 3.300781 -0.96875 3.8125 -0.96875 Z M 3.8125 -0.96875 "/></g></g><g clip-rule="nonzero"><g style="fill:rgb(0%,0%,0%);fill-opacity:1;"><g transform="translate(332.736503, 164.381307)"><path style="stroke:none;" d="M 2.390625 -7.0625 C 1.828125 -7.0625 1.367188 -7.222656 1.015625 -7.546875 C 0.671875 -7.878906 0.5 -8.300781 0.5 -8.8125 C 0.5 -9.164062 0.582031 -9.488281 0.75 -9.78125 C 0.925781 -10.070312 1.160156 -10.300781 1.453125 -10.46875 C 1.742188 -10.632812 2.070312 -10.71875 2.4375 -10.71875 C 2.800781 -10.71875 3.128906 -10.632812 3.421875 -10.46875 C 3.710938 -10.300781 3.9375 -10.078125 4.09375 -9.796875 C 4.25 -9.523438 4.328125 -9.238281 4.328125 -8.9375 C 4.328125 -8.570312 4.234375 -8.242188 4.046875 -7.953125 C 3.867188 -7.671875 3.628906 -7.453125 3.328125 -7.296875 C 3.035156 -7.140625 2.722656 -7.0625 2.390625 -7.0625 Z M 2.390625 -7.71875 C 2.742188 -7.71875 3.035156 -7.820312 3.265625 -8.03125 C 3.503906 -8.25 3.625 -8.539062 3.625 -8.90625 C 3.625 -9.195312 3.519531 -9.457031 3.3125 -9.6875 C 3.113281 -9.925781 2.804688 -10.046875 2.390625 -10.046875 C 2.015625 -10.046875 1.722656 -9.921875 1.515625 -9.671875 C 1.304688 -9.421875 1.203125 -9.132812 1.203125 -8.8125 C 1.203125 -8.46875 1.316406 -8.195312 1.546875 -8 C 1.773438 -7.8125 2.054688 -7.71875 2.390625 -7.71875 Z M 2.390625 -7.71875 "/></g></g></g><g style="fill:rgb(0%,0%,0%);fill-opacity:1;"><g transform="translate(160.617165, 12.243658)"><path style="stroke:none;" d="M 3.6875 -8.65625 C 4.382812 -8.65625 4.984375 -8.492188 5.484375 -8.171875 C 5.992188 -7.859375 6.378906 -7.414062 6.640625 -6.84375 C 6.910156 -6.269531 7.046875 -5.597656 7.046875 -4.828125 C 7.046875 -3.878906 6.914062 -3.039062 6.65625 -2.3125 C 6.40625 -1.59375 6.023438 -1.03125 5.515625 -0.625 C 5.015625 -0.226562 4.40625 -0.03125 3.6875 -0.03125 C 3.03125 -0.03125 2.457031 -0.132812 1.96875 -0.34375 C 1.488281 -0.5625 1.117188 -0.863281 0.859375 -1.25 C 0.609375 -1.632812 0.484375 -2.0625 0.484375 -2.53125 C 0.484375 -2.664062 0.523438 -2.773438 0.609375 -2.859375 C 0.691406 -2.953125 0.800781 -3 0.9375 -3 C 1.070312 -3 1.179688 -2.957031 1.265625 -2.875 C 1.359375 -2.800781 1.40625 -2.691406 1.40625 -2.546875 C 1.40625 -2.046875 1.601562 -1.632812 2 -1.3125 C 2.394531 -0.988281 2.941406 -0.828125 3.640625 -0.828125 C 4.441406 -0.828125 5.0625 -1.164062 5.5 -1.84375 C 5.9375 -2.53125 6.175781 -3.476562 6.21875 -4.6875 C 6.019531 -4.21875 5.6875 -3.859375 5.21875 -3.609375 C 4.75 -3.359375 4.25 -3.234375 3.71875 -3.234375 C 2.78125 -3.234375 2.046875 -3.46875 1.515625 -3.9375 C 0.992188 -4.40625 0.734375 -5.09375 0.734375 -6 C 0.734375 -6.5 0.859375 -6.953125 1.109375 -7.359375 C 1.359375 -7.765625 1.707031 -8.082031 2.15625 -8.3125 C 2.601562 -8.539062 3.113281 -8.65625 3.6875 -8.65625 Z M 3.71875 -3.984375 C 4.082031 -3.984375 4.425781 -4.0625 4.75 -4.21875 C 5.070312 -4.375 5.332031 -4.597656 5.53125 -4.890625 C 5.726562 -5.179688 5.828125 -5.523438 5.828125 -5.921875 C 5.828125 -6.285156 5.734375 -6.613281 5.546875 -6.90625 C 5.359375 -7.207031 5.097656 -7.441406 4.765625 -7.609375 C 4.441406 -7.773438 4.082031 -7.859375 3.6875 -7.859375 C 3.257812 -7.859375 2.890625 -7.769531 2.578125 -7.59375 C 2.273438 -7.414062 2.046875 -7.179688 1.890625 -6.890625 C 1.742188 -6.597656 1.671875 -6.300781 1.671875 -6 C 1.671875 -4.65625 2.351562 -3.984375 3.71875 -3.984375 Z M 3.71875 -3.984375 "/></g></g><g style="fill:rgb(0%,0%,0%);fill-opacity:1;"><g transform="translate(168.041645, 12.243658)"><path style="stroke:none;" d="M 3.828125 -0.15625 C 3.097656 -0.15625 2.472656 -0.332031 1.953125 -0.6875 C 1.441406 -1.050781 1.054688 -1.523438 0.796875 -2.109375 C 0.535156 -2.691406 0.40625 -3.3125 0.40625 -3.96875 C 0.40625 -4.675781 0.53125 -5.359375 0.78125 -6.015625 C 1.039062 -6.679688 1.425781 -7.226562 1.9375 -7.65625 C 2.457031 -8.082031 3.097656 -8.296875 3.859375 -8.296875 C 4.628906 -8.296875 5.273438 -8.085938 5.796875 -7.671875 C 6.316406 -7.253906 6.703125 -6.710938 6.953125 -6.046875 C 7.210938 -5.390625 7.34375 -4.695312 7.34375 -3.96875 C 7.34375 -3.289062 7.203125 -2.660156 6.921875 -2.078125 C 6.648438 -1.492188 6.25 -1.023438 5.71875 -0.671875 C 5.1875 -0.328125 4.554688 -0.15625 3.828125 -0.15625 Z M 3.8125 -0.96875 C 4.34375 -0.96875 4.800781 -1.097656 5.1875 -1.359375 C 5.582031 -1.628906 5.878906 -1.988281 6.078125 -2.4375 C 6.273438 -2.894531 6.375 -3.40625 6.375 -3.96875 C 6.375 -4.59375 6.273438 -5.171875 6.078125 -5.703125 C 5.878906 -6.234375 5.585938 -6.660156 5.203125 -6.984375 C 4.828125 -7.316406 4.382812 -7.484375 3.875 -7.484375 C 3.363281 -7.484375 2.914062 -7.316406 2.53125 -6.984375 C 2.144531 -6.660156 1.851562 -6.226562 1.65625 -5.6875 C 1.46875 -5.144531 1.375 -4.570312 1.375 -3.96875 C 1.375 -3.414062 1.46875 -2.910156 1.65625 -2.453125 C 1.851562 -1.992188 2.132812 -1.628906 2.5 -1.359375 C 2.863281 -1.097656 3.300781 -0.96875 3.8125 -0.96875 Z M 3.8125 -0.96875 "/></g></g><g style="fill:rgb(0%,0%,0%);fill-opacity:1;"><g transform="translate(175.79275, 12.243658)"><path style="stroke:none;" d="M 2.390625 -7.0625 C 1.828125 -7.0625 1.367188 -7.222656 1.015625 -7.546875 C 0.671875 -7.878906 0.5 -8.300781 0.5 -8.8125 C 0.5 -9.164062 0.582031 -9.488281 0.75 -9.78125 C 0.925781 -10.070312 1.160156 -10.300781 1.453125 -10.46875 C 1.742188 -10.632812 2.070312 -10.71875 2.4375 -10.71875 C 2.800781 -10.71875 3.128906 -10.632812 3.421875 -10.46875 C 3.710938 -10.300781 3.9375 -10.078125 4.09375 -9.796875 C 4.25 -9.523438 4.328125 -9.238281 4.328125 -8.9375 C 4.328125 -8.570312 4.234375 -8.242188 4.046875 -7.953125 C 3.867188 -7.671875 3.628906 -7.453125 3.328125 -7.296875 C 3.035156 -7.140625 2.722656 -7.0625 2.390625 -7.0625 Z M 2.390625 -7.71875 C 2.742188 -7.71875 3.035156 -7.820312 3.265625 -8.03125 C 3.503906 -8.25 3.625 -8.539062 3.625 -8.90625 C 3.625 -9.195312 3.519531 -9.457031 3.3125 -9.6875 C 3.113281 -9.925781 2.804688 -10.046875 2.390625 -10.046875 C 2.015625 -10.046875 1.722656 -9.921875 1.515625 -9.671875 C 1.304688 -9.421875 1.203125 -9.132812 1.203125 -8.8125 C 1.203125 -8.46875 1.316406 -8.195312 1.546875 -8 C 1.773438 -7.8125 2.054688 -7.71875 2.390625 -7.71875 Z M 2.390625 -7.71875 "/></g></g><g style="fill:rgb(0%,0%,0%);fill-opacity:1;"><g transform="translate(-1.808665, 187.040348)"><path style="stroke:none;" d="M 5.546875 -4.5 C 5.972656 -4.332031 6.300781 -4.054688 6.53125 -3.671875 C 6.769531 -3.296875 6.890625 -2.859375 6.890625 -2.359375 C 6.890625 -1.992188 6.78125 -1.628906 6.5625 -1.265625 C 6.34375 -0.910156 6.015625 -0.613281 5.578125 -0.375 C 5.148438 -0.144531 4.632812 -0.03125 4.03125 -0.03125 C 1.675781 -0.03125 0.5 -1.066406 0.5 -3.140625 C 0.5 -3.492188 0.660156 -3.671875 0.984375 -3.671875 C 1.296875 -3.671875 1.453125 -3.523438 1.453125 -3.234375 C 1.453125 -1.628906 2.28125 -0.828125 3.9375 -0.828125 C 4.363281 -0.828125 4.726562 -0.894531 5.03125 -1.03125 C 5.332031 -1.175781 5.5625 -1.363281 5.71875 -1.59375 C 5.875 -1.820312 5.953125 -2.066406 5.953125 -2.328125 C 5.953125 -2.898438 5.789062 -3.332031 5.46875 -3.625 C 5.15625 -3.914062 4.644531 -4.0625 3.9375 -4.0625 C 3.6875 -4.0625 3.5625 -4.191406 3.5625 -4.453125 C 3.5625 -4.585938 3.585938 -4.691406 3.640625 -4.765625 C 3.691406 -4.847656 3.789062 -4.890625 3.9375 -4.890625 C 5.132812 -4.890625 5.734375 -5.367188 5.734375 -6.328125 C 5.734375 -6.578125 5.671875 -6.8125 5.546875 -7.03125 C 5.421875 -7.257812 5.238281 -7.441406 5 -7.578125 C 4.757812 -7.722656 4.476562 -7.796875 4.15625 -7.796875 C 3.84375 -7.796875 3.550781 -7.726562 3.28125 -7.59375 C 3.019531 -7.46875 2.804688 -7.285156 2.640625 -7.046875 C 2.484375 -6.804688 2.40625 -6.535156 2.40625 -6.234375 C 2.40625 -6.179688 2.414062 -6.09375 2.4375 -5.96875 C 2.46875 -5.851562 2.484375 -5.769531 2.484375 -5.71875 C 2.484375 -5.613281 2.441406 -5.53125 2.359375 -5.46875 C 2.285156 -5.40625 2.171875 -5.375 2.015625 -5.375 C 1.796875 -5.375 1.648438 -5.457031 1.578125 -5.625 C 1.492188 -5.84375 1.453125 -6.070312 1.453125 -6.3125 C 1.453125 -6.738281 1.570312 -7.125 1.8125 -7.46875 C 2.050781 -7.820312 2.375 -8.097656 2.78125 -8.296875 C 3.195312 -8.492188 3.648438 -8.59375 4.140625 -8.59375 C 4.585938 -8.59375 5.007812 -8.492188 5.40625 -8.296875 C 5.800781 -8.097656 6.117188 -7.828125 6.359375 -7.484375 C 6.597656 -7.140625 6.71875 -6.753906 6.71875 -6.328125 C 6.71875 -5.898438 6.613281 -5.523438 6.40625 -5.203125 C 6.195312 -4.878906 5.910156 -4.644531 5.546875 -4.5 Z M 5.546875 -4.5 "/></g></g><g style="fill:rgb(0%,0%,0%);fill-opacity:1;"><g transform="translate(5.552998, 187.040348)"><path style="stroke:none;" d="M 3.875 -5.140625 C 4.507812 -5.140625 5.050781 -5.007812 5.5 -4.75 C 5.945312 -4.5 6.28125 -4.164062 6.5 -3.75 C 6.71875 -3.34375 6.828125 -2.898438 6.828125 -2.421875 C 6.828125 -1.679688 6.554688 -1.097656 6.015625 -0.671875 C 5.472656 -0.242188 4.742188 -0.03125 3.828125 -0.03125 C 2.742188 -0.03125 1.921875 -0.347656 1.359375 -0.984375 C 0.804688 -1.628906 0.53125 -2.582031 0.53125 -3.84375 C 0.53125 -4.769531 0.671875 -5.585938 0.953125 -6.296875 C 1.234375 -7.003906 1.640625 -7.550781 2.171875 -7.9375 C 2.710938 -8.332031 3.347656 -8.53125 4.078125 -8.53125 C 4.703125 -8.53125 5.21875 -8.375 5.625 -8.0625 C 6.039062 -7.75 6.394531 -7.320312 6.6875 -6.78125 C 6.738281 -6.664062 6.765625 -6.570312 6.765625 -6.5 C 6.765625 -6.382812 6.710938 -6.285156 6.609375 -6.203125 C 6.515625 -6.128906 6.414062 -6.09375 6.3125 -6.09375 C 6.21875 -6.09375 6.140625 -6.113281 6.078125 -6.15625 C 6.023438 -6.207031 5.953125 -6.296875 5.859375 -6.421875 C 5.691406 -6.703125 5.539062 -6.925781 5.40625 -7.09375 C 5.269531 -7.269531 5.082031 -7.421875 4.84375 -7.546875 C 4.613281 -7.671875 4.332031 -7.734375 4 -7.734375 C 3.195312 -7.734375 2.566406 -7.398438 2.109375 -6.734375 C 1.660156 -6.066406 1.425781 -5.128906 1.40625 -3.921875 C 1.632812 -4.285156 1.972656 -4.578125 2.421875 -4.796875 C 2.878906 -5.023438 3.363281 -5.140625 3.875 -5.140625 Z M 3.875 -0.8125 C 4.550781 -0.8125 5.050781 -0.96875 5.375 -1.28125 C 5.695312 -1.59375 5.859375 -1.976562 5.859375 -2.4375 C 5.859375 -2.75 5.789062 -3.050781 5.65625 -3.34375 C 5.519531 -3.632812 5.304688 -3.875 5.015625 -4.0625 C 4.722656 -4.25 4.351562 -4.34375 3.90625 -4.34375 C 3.332031 -4.34375 2.832031 -4.203125 2.40625 -3.921875 C 1.976562 -3.640625 1.765625 -3.203125 1.765625 -2.609375 C 1.765625 -2.066406 1.945312 -1.628906 2.3125 -1.296875 C 2.675781 -0.972656 3.195312 -0.8125 3.875 -0.8125 Z M 3.875 -0.8125 "/></g></g><g style="fill:rgb(0%,0%,0%);fill-opacity:1;"><g transform="translate(13.140796, 187.040348)"><path style="stroke:none;" d="M 3.828125 -0.15625 C 3.097656 -0.15625 2.472656 -0.332031 1.953125 -0.6875 C 1.441406 -1.050781 1.054688 -1.523438 0.796875 -2.109375 C 0.535156 -2.691406 0.40625 -3.3125 0.40625 -3.96875 C 0.40625 -4.675781 0.53125 -5.359375 0.78125 -6.015625 C 1.039062 -6.679688 1.425781 -7.226562 1.9375 -7.65625 C 2.457031 -8.082031 3.097656 -8.296875 3.859375 -8.296875 C 4.628906 -8.296875 5.273438 -8.085938 5.796875 -7.671875 C 6.316406 -7.253906 6.703125 -6.710938 6.953125 -6.046875 C 7.210938 -5.390625 7.34375 -4.695312 7.34375 -3.96875 C 7.34375 -3.289062 7.203125 -2.660156 6.921875 -2.078125 C 6.648438 -1.492188 6.25 -1.023438 5.71875 -0.671875 C 5.1875 -0.328125 4.554688 -0.15625 3.828125 -0.15625 Z M 3.8125 -0.96875 C 4.34375 -0.96875 4.800781 -1.097656 5.1875 -1.359375 C 5.582031 -1.628906 5.878906 -1.988281 6.078125 -2.4375 C 6.273438 -2.894531 6.375 -3.40625 6.375 -3.96875 C 6.375 -4.59375 6.273438 -5.171875 6.078125 -5.703125 C 5.878906 -6.234375 5.585938 -6.660156 5.203125 -6.984375 C 4.828125 -7.316406 4.382812 -7.484375 3.875 -7.484375 C 3.363281 -7.484375 2.914062 -7.316406 2.53125 -6.984375 C 2.144531 -6.660156 1.851562 -6.226562 1.65625 -5.6875 C 1.46875 -5.144531 1.375 -4.570312 1.375 -3.96875 C 1.375 -3.414062 1.46875 -2.910156 1.65625 -2.453125 C 1.851562 -1.992188 2.132812 -1.628906 2.5 -1.359375 C 2.863281 -1.097656 3.300781 -0.96875 3.8125 -0.96875 Z M 3.8125 -0.96875 "/></g></g><g style="fill:rgb(0%,0%,0%);fill-opacity:1;"><g transform="translate(20.891901, 187.040348)"><path style="stroke:none;" d="M 2.390625 -7.0625 C 1.828125 -7.0625 1.367188 -7.222656 1.015625 -7.546875 C 0.671875 -7.878906 0.5 -8.300781 0.5 -8.8125 C 0.5 -9.164062 0.582031 -9.488281 0.75 -9.78125 C 0.925781 -10.070312 1.160156 -10.300781 1.453125 -10.46875 C 1.742188 -10.632812 2.070312 -10.71875 2.4375 -10.71875 C 2.800781 -10.71875 3.128906 -10.632812 3.421875 -10.46875 C 3.710938 -10.300781 3.9375 -10.078125 4.09375 -9.796875 C 4.25 -9.523438 4.328125 -9.238281 4.328125 -8.9375 C 4.328125 -8.570312 4.234375 -8.242188 4.046875 -7.953125 C 3.867188 -7.671875 3.628906 -7.453125 3.328125 -7.296875 C 3.035156 -7.140625 2.722656 -7.0625 2.390625 -7.0625 Z M 2.390625 -7.71875 C 2.742188 -7.71875 3.035156 -7.820312 3.265625 -8.03125 C 3.503906 -8.25 3.625 -8.539062 3.625 -8.90625 C 3.625 -9.195312 3.519531 -9.457031 3.3125 -9.6875 C 3.113281 -9.925781 2.804688 -10.046875 2.390625 -10.046875 C 2.015625 -10.046875 1.722656 -9.921875 1.515625 -9.671875 C 1.304688 -9.421875 1.203125 -9.132812 1.203125 -8.8125 C 1.203125 -8.46875 1.316406 -8.195312 1.546875 -8 C 1.773438 -7.8125 2.054688 -7.71875 2.390625 -7.71875 Z M 2.390625 -7.71875 "/></g></g><g style="fill:rgb(0%,0%,0%);fill-opacity:1;"><g transform="translate(157.335913, 330.549428)"><path style="stroke:none;" d="M 5.765625 -0.890625 C 5.910156 -0.890625 6.023438 -0.851562 6.109375 -0.78125 C 6.203125 -0.707031 6.25 -0.609375 6.25 -0.484375 C 6.25 -0.359375 6.203125 -0.257812 6.109375 -0.1875 C 6.015625 -0.113281 5.898438 -0.078125 5.765625 -0.078125 C 5.660156 -0.078125 5.425781 -0.0820312 5.0625 -0.09375 C 4.226562 -0.125 3.679688 -0.140625 3.421875 -0.140625 C 2.515625 -0.140625 1.742188 -0.125 1.109375 -0.09375 C 0.984375 -0.09375 0.878906 -0.125 0.796875 -0.1875 C 0.722656 -0.25 0.695312 -0.335938 0.71875 -0.453125 C 0.8125 -1.066406 1.097656 -1.648438 1.578125 -2.203125 C 2.054688 -2.765625 2.734375 -3.347656 3.609375 -3.953125 C 4.640625 -4.679688 5.15625 -5.472656 5.15625 -6.328125 C 5.15625 -6.828125 4.988281 -7.238281 4.65625 -7.5625 C 4.332031 -7.882812 3.910156 -8.046875 3.390625 -8.046875 C 3.066406 -8.046875 2.773438 -7.960938 2.515625 -7.796875 C 2.265625 -7.628906 2.078125 -7.414062 1.953125 -7.15625 C 1.828125 -6.894531 1.765625 -6.613281 1.765625 -6.3125 C 1.753906 -6.1875 1.707031 -6.09375 1.625 -6.03125 C 1.550781 -5.96875 1.4375 -5.9375 1.28125 -5.9375 C 1.113281 -5.9375 0.992188 -5.976562 0.921875 -6.0625 C 0.847656 -6.144531 0.8125 -6.269531 0.8125 -6.4375 C 0.8125 -6.851562 0.925781 -7.242188 1.15625 -7.609375 C 1.382812 -7.984375 1.703125 -8.28125 2.109375 -8.5 C 2.515625 -8.726562 2.976562 -8.84375 3.5 -8.84375 C 4.019531 -8.84375 4.476562 -8.726562 4.875 -8.5 C 5.28125 -8.28125 5.585938 -7.976562 5.796875 -7.59375 C 6.015625 -7.207031 6.125 -6.78125 6.125 -6.3125 C 6.125 -5.195312 5.46875 -4.1875 4.15625 -3.28125 C 3.601562 -2.90625 3.113281 -2.507812 2.6875 -2.09375 C 2.269531 -1.6875 1.984375 -1.289062 1.828125 -0.90625 C 2.160156 -0.914062 2.691406 -0.921875 3.421875 -0.921875 C 4.023438 -0.921875 4.804688 -0.910156 5.765625 -0.890625 Z M 5.765625 -0.890625 "/></g></g><g style="fill:rgb(0%,0%,0%);fill-opacity:1;"><g transform="translate(164.333265, 330.549428)"><path style="stroke:none;" d="M 5.921875 -4.671875 C 6.242188 -4.671875 6.40625 -4.535156 6.40625 -4.265625 C 6.40625 -4.128906 6.367188 -4.023438 6.296875 -3.953125 C 6.222656 -3.878906 6.117188 -3.84375 5.984375 -3.84375 C 5.566406 -3.84375 5.25 -3.835938 5.03125 -3.828125 C 4.632812 -2.660156 4.191406 -1.472656 3.703125 -0.265625 C 3.671875 -0.179688 3.601562 -0.113281 3.5 -0.0625 C 3.40625 -0.0195312 3.3125 0 3.21875 0 C 3.070312 0 2.953125 -0.0351562 2.859375 -0.109375 C 2.765625 -0.179688 2.71875 -0.269531 2.71875 -0.375 C 2.71875 -0.4375 2.734375 -0.492188 2.765625 -0.546875 C 3.140625 -1.390625 3.546875 -2.476562 3.984375 -3.8125 C 3.785156 -3.8125 3.476562 -3.8125 3.0625 -3.8125 C 2.757812 -3.8125 2.609375 -3.941406 2.609375 -4.203125 C 2.609375 -4.328125 2.648438 -4.425781 2.734375 -4.5 C 2.816406 -4.582031 2.925781 -4.625 3.0625 -4.625 C 3.601562 -4.625 4.003906 -4.628906 4.265625 -4.640625 C 4.554688 -5.546875 4.703125 -6.25 4.703125 -6.75 C 4.703125 -7.144531 4.585938 -7.4375 4.359375 -7.625 C 4.140625 -7.820312 3.726562 -7.921875 3.125 -7.921875 C 2.726562 -7.921875 2.34375 -7.890625 1.96875 -7.828125 C 1.601562 -7.765625 1.210938 -7.6875 0.796875 -7.59375 C 0.765625 -7.582031 0.722656 -7.578125 0.671875 -7.578125 C 0.546875 -7.578125 0.445312 -7.609375 0.375 -7.671875 C 0.3125 -7.742188 0.28125 -7.84375 0.28125 -7.96875 C 0.28125 -8.144531 0.40625 -8.28125 0.65625 -8.375 C 0.914062 -8.457031 1.265625 -8.539062 1.703125 -8.625 C 2.148438 -8.707031 2.617188 -8.75 3.109375 -8.75 C 4.816406 -8.75 5.671875 -8.109375 5.671875 -6.828125 C 5.671875 -6.316406 5.539062 -5.59375 5.28125 -4.65625 Z M 5.921875 -4.671875 "/></g></g><g style="fill:rgb(0%,0%,0%);fill-opacity:1;"><g transform="translate(171.318051, 330.549428)"><path style="stroke:none;" d="M 3.828125 -0.15625 C 3.097656 -0.15625 2.472656 -0.332031 1.953125 -0.6875 C 1.441406 -1.050781 1.054688 -1.523438 0.796875 -2.109375 C 0.535156 -2.691406 0.40625 -3.3125 0.40625 -3.96875 C 0.40625 -4.675781 0.53125 -5.359375 0.78125 -6.015625 C 1.039062 -6.679688 1.425781 -7.226562 1.9375 -7.65625 C 2.457031 -8.082031 3.097656 -8.296875 3.859375 -8.296875 C 4.628906 -8.296875 5.273438 -8.085938 5.796875 -7.671875 C 6.316406 -7.253906 6.703125 -6.710938 6.953125 -6.046875 C 7.210938 -5.390625 7.34375 -4.695312 7.34375 -3.96875 C 7.34375 -3.289062 7.203125 -2.660156 6.921875 -2.078125 C 6.648438 -1.492188 6.25 -1.023438 5.71875 -0.671875 C 5.1875 -0.328125 4.554688 -0.15625 3.828125 -0.15625 Z M 3.8125 -0.96875 C 4.34375 -0.96875 4.800781 -1.097656 5.1875 -1.359375 C 5.582031 -1.628906 5.878906 -1.988281 6.078125 -2.4375 C 6.273438 -2.894531 6.375 -3.40625 6.375 -3.96875 C 6.375 -4.59375 6.273438 -5.171875 6.078125 -5.703125 C 5.878906 -6.234375 5.585938 -6.660156 5.203125 -6.984375 C 4.828125 -7.316406 4.382812 -7.484375 3.875 -7.484375 C 3.363281 -7.484375 2.914062 -7.316406 2.53125 -6.984375 C 2.144531 -6.660156 1.851562 -6.226562 1.65625 -5.6875 C 1.46875 -5.144531 1.375 -4.570312 1.375 -3.96875 C 1.375 -3.414062 1.46875 -2.910156 1.65625 -2.453125 C 1.851562 -1.992188 2.132812 -1.628906 2.5 -1.359375 C 2.863281 -1.097656 3.300781 -0.96875 3.8125 -0.96875 Z M 3.8125 -0.96875 "/></g></g><g style="fill:rgb(0%,0%,0%);fill-opacity:1;"><g transform="translate(179.069156, 330.549428)"><path style="stroke:none;" d="M 2.390625 -7.0625 C 1.828125 -7.0625 1.367188 -7.222656 1.015625 -7.546875 C 0.671875 -7.878906 0.5 -8.300781 0.5 -8.8125 C 0.5 -9.164062 0.582031 -9.488281 0.75 -9.78125 C 0.925781 -10.070312 1.160156 -10.300781 1.453125 -10.46875 C 1.742188 -10.632812 2.070312 -10.71875 2.4375 -10.71875 C 2.800781 -10.71875 3.128906 -10.632812 3.421875 -10.46875 C 3.710938 -10.300781 3.9375 -10.078125 4.09375 -9.796875 C 4.25 -9.523438 4.328125 -9.238281 4.328125 -8.9375 C 4.328125 -8.570312 4.234375 -8.242188 4.046875 -7.953125 C 3.867188 -7.671875 3.628906 -7.453125 3.328125 -7.296875 C 3.035156 -7.140625 2.722656 -7.0625 2.390625 -7.0625 Z M 2.390625 -7.71875 C 2.742188 -7.71875 3.035156 -7.820312 3.265625 -8.03125 C 3.503906 -8.25 3.625 -8.539062 3.625 -8.90625 C 3.625 -9.195312 3.519531 -9.457031 3.3125 -9.6875 C 3.113281 -9.925781 2.804688 -10.046875 2.390625 -10.046875 C 2.015625 -10.046875 1.722656 -9.921875 1.515625 -9.671875 C 1.304688 -9.421875 1.203125 -9.132812 1.203125 -8.8125 C 1.203125 -8.46875 1.316406 -8.195312 1.546875 -8 C 1.773438 -7.8125 2.054688 -7.71875 2.390625 -7.71875 Z M 2.390625 -7.71875 "/></g></g></g></svg>